<svg id="social_icon" xmlns="http://www.w3.org/2000/svg" xmlns:xlink="http://www.w3.org/1999/xlink" width="95.625" height="12.857" viewBox="0 0 95.625 12.857">
  <defs>
    <clipPath id="clip-path">
      <rect width="14.464" height="9.944" fill="none"/>
    </clipPath>
    <clipPath id="clip-path-2">
      <rect width="11.25" height="11.249" fill="none"/>
    </clipPath>
    <clipPath id="clip-path-3">
      <rect width="14.464" height="11.749" fill="none"/>
    </clipPath>
    <clipPath id="clip-path-4">
      <rect width="6.951" height="12.857" fill="none"/>
    </clipPath>
  </defs>
  <g id="youtube" transform="translate(53.839 2)" clip-path="url(#clip-path)">
    <g id="youtube-2" data-name="youtube" opacity="0.5">
      <g id="Group_81" data-name="Group 81" transform="translate(0 0)">
        <path id="Path_67" data-name="Path 67" d="M13.85,80.958c-.392-.7-.818-.826-1.685-.875S9.121,80,7.234,80s-4.069.024-4.934.082-1.292.177-1.688.876A8.532,8.532,0,0,0,0,84.969v.007a8.5,8.5,0,0,0,.612,4c.4.7.822.824,1.687.883s3.045.08,4.935.08,4.064-.03,4.931-.08,1.293-.185,1.685-.883a8.447,8.447,0,0,0,.614-4V84.97A8.465,8.465,0,0,0,13.85,80.958ZM5.424,87.684V82.26l4.52,2.712Z" transform="translate(0 -80)" fill="#fff"/>
      </g>
    </g>
  </g>
  <g id="rss-symbol" transform="translate(84.375 1)" clip-path="url(#clip-path-2)">
    <g id="rss-symbol-2" data-name="rss-symbol" opacity="0.5">
      <g id="Group_82" data-name="Group 82" transform="translate(0 0)">
        <path id="Path_68" data-name="Path 68" d="M1.534,292.382a1.48,1.48,0,0,0-1.087.447,1.543,1.543,0,0,0,0,2.173,1.48,1.48,0,0,0,1.087.447A1.479,1.479,0,0,0,2.62,295a1.543,1.543,0,0,0,0-2.173A1.479,1.479,0,0,0,1.534,292.382Z" transform="translate(0 -284.201)" fill="#fff"/>
        <path id="Path_69" data-name="Path 69" d="M5.065,148.294A7.064,7.064,0,0,0,3,146.844,7.163,7.163,0,0,0,.551,146.2H.511a.465.465,0,0,0-.343.136.471.471,0,0,0-.168.375v1.079a.491.491,0,0,0,.132.344.485.485,0,0,0,.332.16,4.969,4.969,0,0,1,3.128,1.474A4.968,4.968,0,0,1,5.065,152.9a.5.5,0,0,0,.5.464H6.647a.471.471,0,0,0,.375-.168.485.485,0,0,0,.136-.384,7.167,7.167,0,0,0-.643-2.445A7.065,7.065,0,0,0,5.065,148.294Z" transform="translate(0 -142.111)" fill="#fff"/>
        <path id="Path_70" data-name="Path 70" d="M10.29,6.727a11.2,11.2,0,0,0-2.349-3.4A11.2,11.2,0,0,0,4.542.979,11.087,11.087,0,0,0,.535.02H.511A.478.478,0,0,0,.16.164.472.472,0,0,0,0,.531V1.674a.489.489,0,0,0,.14.348.478.478,0,0,0,.339.156,9.052,9.052,0,0,1,3.264.815A9.185,9.185,0,0,1,6.427,4.841,9.185,9.185,0,0,1,8.277,7.526a8.931,8.931,0,0,1,.807,3.263.479.479,0,0,0,.156.34.5.5,0,0,0,.356.14h1.142a.472.472,0,0,0,.368-.16.462.462,0,0,0,.144-.375A11.086,11.086,0,0,0,10.29,6.727Z" transform="translate(0 -0.02)" fill="#fff"/>
      </g>
    </g>
  </g>
  <g id="twitter-logo-silhouette" transform="translate(23.304 1)" clip-path="url(#clip-path-3)">
    <g id="twitter-logo-silhouette-2" data-name="twitter-logo-silhouette" opacity="0.5">
      <g id="Group_83" data-name="Group 83" transform="translate(0)">
        <path id="Path_71" data-name="Path 71" d="M14.465,58.831a5.925,5.925,0,0,1-1.7.467,2.98,2.98,0,0,0,1.3-1.64,5.982,5.982,0,0,1-1.885.72,2.97,2.97,0,0,0-5.056,2.705,8.424,8.424,0,0,1-6.115-3.1,2.971,2.971,0,0,0,.918,3.961,2.967,2.967,0,0,1-1.344-.372v.037a2.97,2.97,0,0,0,2.38,2.91,3.006,3.006,0,0,1-.782.1,2.848,2.848,0,0,1-.559-.055,2.969,2.969,0,0,0,2.771,2.061A5.953,5.953,0,0,1,.709,67.9,6.307,6.307,0,0,1,0,67.855,8.387,8.387,0,0,0,4.549,69.19a8.384,8.384,0,0,0,8.442-8.442l-.01-.384A5.925,5.925,0,0,0,14.465,58.831Z" transform="translate(-0.001 -57.441)" fill="#fff"/>
      </g>
    </g>
  </g>
  <g id="facebook-logo" clip-path="url(#clip-path-4)">
    <g id="facebook-logo-2" data-name="facebook-logo" opacity="0.5">
      <path id="Path_72" data-name="Path 72" d="M28.766,0,27.1,0a2.928,2.928,0,0,0-3.084,3.164V4.623H22.339a.262.262,0,0,0-.262.262V7a.262.262,0,0,0,.262.262h1.676V12.6a.262.262,0,0,0,.262.262h2.187a.262.262,0,0,0,.262-.262V7.261h1.96A.262.262,0,0,0,28.949,7V4.885a.262.262,0,0,0-.262-.262H26.727V3.386c0-.594.142-.9.916-.9h1.123a.262.262,0,0,0,.262-.262V.265A.262.262,0,0,0,28.766,0Z" transform="translate(-22.077)" fill="#fff"/>
    </g>
  </g>
</svg>
