<svg xmlns="http://www.w3.org/2000/svg" width="28" height="28" viewBox="0 0 28 28">
  <g id="user" transform="translate(0)" opacity="0.8">
    <g id="Group_7" data-name="Group 7" transform="translate(0)">
      <path id="Path_5" data-name="Path 5" d="M27.929,23.993a1.094,1.094,0,0,0-2.142.446,1.143,1.143,0,0,1-.232.958,1.111,1.111,0,0,1-.875.416H3.32a1.111,1.111,0,0,1-.875-.416,1.143,1.143,0,0,1-.232-.958,12.084,12.084,0,0,1,11.5-9.569q.144.006.29.006t.291-.006a12.032,12.032,0,0,1,9.717,5.341,1.094,1.094,0,1,0,1.817-1.218,14.227,14.227,0,0,0-7.372-5.6,7.437,7.437,0,1,0-8.9,0,14.226,14.226,0,0,0-9.479,10.6A3.323,3.323,0,0,0,3.32,28H24.681a3.323,3.323,0,0,0,3.248-4.007ZM8.75,7.438a5.25,5.25,0,1,1,5.516,5.243l-.266,0-.265,0A5.257,5.257,0,0,1,8.75,7.438Z" transform="translate(0)" fill="#303030"/>
    </g>
  </g>
</svg>
